PathFileType	4	(X/Y/Z)	C:/Users/opensim2020/Desktop/walking_exp_matlab/subject03_walking08_straight_03.trc																																																																																																																																																							
DataRate	CameraRate	NumFrames	NumMarkers	Units	OrigDataRate	OrigDataStartFrame	OrigNumFrames																																																																																																																																																			
100	100	4	51	mm	100	2618	299																																																																																																																																																			
Frame#	Time	LFHD			RFHD			LBHD			RBHD			C7			T10			CLAV			STRN			RBAK			LSHO			LUPA			LELB			LFRM			LWRA			LWRB			LFIN			RSHO			RUPA			RELB			RFRM			RWRA			RWRB			RFIN			LASI			RASI			LPSI			RPSI			LTHI			LKNE			LTIB			LANK			LHEE			LTOE			RTHI			RKNE			RTIB			RANK			RHEE			RTOE			*39			*40			*41			*42			*43			*44			*45			*46			*47			*48			*49			*50		
		X1	Y1	Z1	X2	Y2	Z2	X3	Y3	Z3	X4	Y4	Z4	X5	Y5	Z5	X6	Y6	Z6	X7	Y7	Z7	X8	Y8	Z8	X9	Y9	Z9	X10	Y10	Z10	X11	Y11	Z11	X12	Y12	Z12	X13	Y13	Z13	X14	Y14	Z14	X15	Y15	Z15	X16	Y16	Z16	X17	Y17	Z17	X18	Y18	Z18	X19	Y19	Z19	X20	Y20	Z20	X21	Y21	Z21	X22	Y22	Z22	X23	Y23	Z23	X24	Y24	Z24	X25	Y25	Z25	X26	Y26	Z26	X27	Y27	Z27	X28	Y28	Z28	X29	Y29	Z29	X30	Y30	Z30	X31	Y31	Z31	X32	Y32	Z32	X33	Y33	Z33	X34	Y34	Z34	X35	Y35	Z35	X36	Y36	Z36	X37	Y37	Z37	X38	Y38	Z38	X39	Y39	Z39	X40	Y40	Z40	X41	Y41	Z41	X42	Y42	Z42	X43	Y43	Z43	X44	Y44	Z44	X45	Y45	Z45	X46	Y46	Z46	X47	Y47	Z47	X48	Y48	Z48	X49	Y49	Z49	X50	Y50	Z50	X51	Y51	Z51
																																																																																																																																																										
187	1.86	449.62543	1601.13599	-1089.99622	430.24377	1611.49219	-959.14697	316.6944	1580.6051	-1104.13416	303.06622	1589.7616	-974.34143	259.50412	1415.47742	-1045.84961	228.13165	1098.70569	-1040.75977	378.56882	1337.43457	-1031.32544	424.88211	1174.2406	-1032.77881	197.03729	1236.00549	-954.33734	349.33331	1373.66394	-1189.64209	390.97949	1186.57947	-1263.87439	438.85083	1074.54858	-1276.7052	518.68768	972.67786	-1269.35266	588.5083	879.54083	-1231.95789	568.48578	870.81921	-1283.25549	623.37622	808.66895	-1270.4082	315.74756	1361.6571	-877.03198	317.62012	1139.62512	-801.55884	338.84378	1028.97009	-786.49561	365.78613	894.86157	-783.45764	406.25427	802.82892	-816.5777	372.71527	795.11438	-774.948	403.4368	728.29498	-781.09052	398.1228	937.11749	-1151.50781	392.49008	936.93073	-913.08862	235.29677	961.69293	-1103.81116	232.49548	962.85175	-954.56482	328.71616	635.69391	-1179.44214	317.20178	459.31296	-1134.21484	249.9258	274.24948	-1132.9165	211.22609	68.35442	-1084.78149	167.83585	35.88783	-1049.46448	362.15335	29.37164	-1057.56189	407.75983	647.81824	-857.90424	488.55063	485.83356	-884.81348	444.97534	299.8042	-882.46161	409.50696	86.48203	-926.42041	364.93454	56.11613	-980.7215	542.67389	40.89101	-937.00299	372.94281	1676.2323	-1052.92126	NaN	NaN	NaN	NaN	NaN	NaN	NaN	NaN	NaN	NaN	NaN	NaN	NaN	NaN	NaN	NaN	NaN	NaN	NaN	NaN	NaN	NaN	NaN	NaN	NaN	NaN	NaN	NaN	NaN	NaN	NaN	NaN	NaN
188	1.87	456.7774	1600.74951	-1089.23608	437.23401	1610.80286	-958.36792	323.93124	1579.96094	-1103.59631	310.07715	1588.88525	-973.80811	266.77655	1414.83105	-1045.52612	235.0518	1098.17236	-1040.12354	385.85156	1336.73792	-1031.0918	431.88147	1173.4696	-1032.71887	204.173	1235.42102	-954.07135	356.61282	1373.13501	-1189.29761	398.82315	1186.50085	-1263.89917	447.11914	1074.76843	-1276.76196	528.52911	974.32196	-1268.88416	600.02637	882.79449	-1231.00269	580.17645	873.28619	-1281.93701	636.36969	812.47791	-1268.95764	323.04749	1360.79834	-876.68494	323.63702	1138.7666	-801.4234	344.38397	1028.02185	-786.34448	370.94379	893.81812	-783.2323	411.38895	801.7309	-816.33673	377.53702	794.00116	-775.00085	408.12454	727.1936	-781.02075	404.76581	936.52509	-1151.474	399.90759	936.08942	-912.88916	242.01482	961.08038	-1103.09729	239.72954	962.02216	-953.86224	333.40536	635.38269	-1179.15222	320.2438	459.03693	-1134.17737	251.53453	274.52295	-1132.87903	211.45563	68.79481	-1084.73816	167.86156	36.42356	-1049.35474	362.10043	29.22559	-1057.52917	414.22379	646.5658	-857.93158	496.18851	485.13043	-885.76917	459.87793	298.06357	-882.51129	433.67502	83.08811	-925.66656	390.29535	50.90669	-979.83118	568.5498	42.12597	-937.05951	379.94208	1675.66162	-1052.21265	NaN	NaN	NaN	NaN	NaN	NaN	NaN	NaN	NaN	NaN	NaN	NaN	NaN	NaN	NaN	NaN	NaN	NaN	NaN	NaN	NaN	NaN	NaN	NaN	NaN	NaN	NaN	NaN	NaN	NaN	NaN	NaN	NaN
189	1.88	463.94714	1600.26648	-1088.3689	444.31982	1610.16797	-957.79065	331.20673	1579.2915	-1103.04944	317.08405	1587.93396	-973.2262	274.08618	1414.15259	-1045.08081	242.01091	1097.55322	-1039.55542	393.17874	1336.04285	-1030.8418	438.94473	1172.68323	-1032.54077	211.3847	1234.82739	-953.70654	363.86102	1372.53784	-1188.92102	406.47772	1186.21094	-1263.68494	455.27582	1074.8999	-1276.68042	538.08521	975.77594	-1268.30811	610.85327	885.53906	-1229.71619	591.47601	875.64502	-1280.90027	648.91522	816.16626	-1267.35229	330.31592	1360.04651	-876.34198	329.81665	1137.91321	-801.33411	350.04401	1027.06592	-786.19086	376.17355	892.76642	-783.22742	416.63126	800.61951	-816.13379	382.38867	792.91406	-775.07245	412.8233	725.9718	-781.00061	411.37488	935.90564	-1151.37207	407.31378	935.09961	-912.43115	248.81129	960.3822	-1102.45483	247.01175	961.10529	-953.21747	338.16632	635.09357	-1178.83936	323.36157	458.82983	-1134.18958	253.0777	274.77933	-1132.76404	211.55603	69.15767	-1084.70764	167.94614	37.0129	-1049.14307	362.04971	29.15122	-1057.53491	420.52295	645.2627	-857.79456	503.56955	484.29581	-886.69513	474.26624	296.5329	-882.56757	457.2258	80.35845	-925.008	414.9816	46.72708	-978.95532	593.62482	43.55675	-937.06989	386.94565	1675.00708	-1051.33691	NaN	NaN	NaN	NaN	NaN	NaN	NaN	NaN	NaN	NaN	NaN	NaN	NaN	NaN	NaN	NaN	NaN	NaN	NaN	NaN	NaN	NaN	NaN	NaN	NaN	NaN	NaN	NaN	NaN	NaN	NaN	NaN	NaN
190	1.89	471.25467	1599.85315	-1087.61475	451.25525	1609.40186	-956.73956	338.50281	1578.59937	-1102.38843	324.18201	1587.02002	-972.6463	281.42026	1413.42664	-1044.63037	249.08678	1096.92212	-1038.94177	400.52267	1335.26965	-1030.49548	446.08716	1171.8429	-1032.41003	218.70509	1234.24097	-953.2113	371.13647	1372.03296	-1188.51477	414.16879	1185.96289	-1263.61462	463.11389	1074.802	-1276.60071	547.24878	977.0434	-1267.67651	621.34918	888.20776	-1228.44617	602.32294	877.74097	-1279.6344	660.89545	819.54706	-1265.66614	337.80728	1359.18848	-875.93225	336.24442	1137.03577	-801.18719	355.9071	1026.10718	-786.04822	381.36279	891.68317	-783.09955	421.82883	799.49408	-815.95801	387.29495	791.80273	-775.18042	417.439	724.74951	-780.99518	418.14044	935.23474	-1151.17761	414.71387	934.177	-912.19434	255.6483	959.69946	-1101.77417	254.32228	960.24286	-952.5332	342.97488	634.79895	-1178.54785	326.57672	458.67398	-1134.12268	254.69589	275.11115	-1132.69495	211.82866	69.59114	-1084.57251	168.19902	37.63068	-1049.06104	362.1409	29.14057	-1057.5592	427.25339	643.90643	-857.51392	510.65741	483.297	-887.52295	487.82568	295.10422	-882.65894	480.0459	78.18845	-924.35553	438.80676	43.54692	-978.27991	617.81635	45.15695	-936.91302	393.97006	1674.39697	-1050.53003	NaN	NaN	NaN	NaN	NaN	NaN	NaN	NaN	NaN	NaN	NaN	NaN	NaN	NaN	NaN	NaN	NaN	NaN	NaN	NaN	NaN	NaN	NaN	NaN	NaN	NaN	NaN	NaN	NaN	NaN	NaN	NaN	NaN
